<svg xmlns="http://www.w3.org/2000/svg" xmlns:xlink="http://www.w3.org/1999/xlink" width="1080" zoomandpan="magnify" viewbox="0 0 810 809.999993" height="1080" preserveaspectratio="xMidYMid meet" version="1.0">
    <defs>
        <clipPath id="2be6f5f736"><path d="M 192.191406 4 L 613 4 L 613 806 L 192.191406 806 Z M 192.191406 4 " clip-rule="nonzero"/></clipPath>
    </defs>
    <g clip-path="url(#2be6f5f736)"><path fill="#fff" d="M 213.242188 805.328125 C 212.207031 805.332031 211.175781 805.257812 210.148438 805.105469 C 209.125 804.957031 208.113281 804.730469 207.121094 804.429688 C 206.128906 804.128906 205.164062 803.757812 204.226562 803.316406 C 203.289062 802.875 202.390625 802.367188 201.527344 801.789062 C 200.664062 801.214844 199.847656 800.578125 199.082031 799.882812 C 198.3125 799.1875 197.597656 798.4375 196.941406 797.636719 C 196.28125 796.835938 195.6875 795.988281 195.152344 795.101562 C 194.621094 794.210938 194.15625 793.285156 193.757812 792.328125 C 193.359375 791.367188 193.035156 790.386719 192.785156 789.378906 C 192.53125 788.375 192.355469 787.355469 192.253906 786.320312 C 192.152344 785.289062 192.128906 784.253906 192.179688 783.21875 C 192.230469 782.183594 192.355469 781.15625 192.558594 780.136719 C 192.761719 779.121094 193.039062 778.125 193.390625 777.148438 C 193.738281 776.171875 194.160156 775.226562 194.648438 774.308594 C 195.136719 773.394531 195.691406 772.523438 196.308594 771.691406 C 196.929688 770.855469 197.605469 770.074219 198.339844 769.339844 L 561.609375 405 L 198.339844 40.617188 C 197.835938 40.128906 197.363281 39.621094 196.910156 39.089844 C 196.460938 38.554688 196.039062 38.003906 195.644531 37.425781 C 195.25 36.851562 194.882812 36.261719 194.546875 35.648438 C 194.210938 35.039062 193.90625 34.410156 193.628906 33.769531 C 193.355469 33.128906 193.113281 32.476562 192.90625 31.808594 C 192.695312 31.144531 192.519531 30.46875 192.378906 29.789062 C 192.234375 29.105469 192.125 28.414062 192.054688 27.722656 C 191.980469 27.027344 191.9375 26.332031 191.933594 25.636719 C 191.929688 24.9375 191.957031 24.242188 192.023438 23.546875 C 192.085938 22.851562 192.183594 22.160156 192.316406 21.476562 C 192.449219 20.792969 192.617188 20.113281 192.816406 19.445312 C 193.015625 18.777344 193.246094 18.121094 193.511719 17.476562 C 193.777344 16.832031 194.074219 16.199219 194.402344 15.585938 C 194.730469 14.96875 195.085938 14.371094 195.472656 13.789062 C 195.859375 13.210938 196.273438 12.648438 196.714844 12.109375 C 197.160156 11.570312 197.625 11.054688 198.121094 10.5625 C 198.613281 10.070312 199.132812 9.601562 199.671875 9.160156 C 200.210938 8.71875 200.769531 8.308594 201.351562 7.921875 C 201.933594 7.535156 202.53125 7.179688 203.148438 6.855469 C 203.765625 6.527344 204.394531 6.234375 205.042969 5.96875 C 205.6875 5.707031 206.34375 5.476562 207.011719 5.277344 C 207.679688 5.082031 208.355469 4.917969 209.042969 4.785156 C 209.726562 4.65625 210.417969 4.558594 211.109375 4.496094 C 211.804688 4.433594 212.5 4.40625 213.199219 4.414062 C 213.894531 4.421875 214.589844 4.460938 215.28125 4.539062 C 215.976562 4.613281 216.664062 4.722656 217.34375 4.867188 C 218.027344 5.011719 218.699219 5.191406 219.363281 5.402344 C 220.027344 5.613281 220.679688 5.859375 221.320312 6.132812 C 221.960938 6.410156 222.585938 6.71875 223.195312 7.054688 C 223.804688 7.394531 224.398438 7.761719 224.96875 8.160156 C 225.542969 8.558594 226.09375 8.980469 226.625 9.433594 C 227.15625 9.886719 227.664062 10.363281 228.148438 10.867188 L 606.242188 390.125 C 606.726562 390.613281 607.1875 391.121094 607.625 391.65625 C 608.058594 392.1875 608.46875 392.742188 608.851562 393.316406 C 609.230469 393.886719 609.585938 394.476562 609.90625 395.085938 C 610.230469 395.695312 610.523438 396.316406 610.789062 396.953125 C 611.050781 397.589844 611.28125 398.238281 611.480469 398.894531 C 611.679688 399.554688 611.847656 400.222656 611.980469 400.898438 C 612.113281 401.574219 612.214844 402.253906 612.28125 402.9375 C 612.351562 403.625 612.382812 404.3125 612.382812 405 C 612.382812 405.6875 612.351562 406.375 612.28125 407.0625 C 612.214844 407.746094 612.113281 408.425781 611.980469 409.101562 C 611.847656 409.777344 611.679688 410.445312 611.480469 411.105469 C 611.28125 411.761719 611.050781 412.410156 610.789062 413.046875 C 610.523438 413.683594 610.230469 414.304688 609.90625 414.914062 C 609.585938 415.523438 609.230469 416.113281 608.851562 416.683594 C 608.46875 417.257812 608.058594 417.8125 607.625 418.34375 C 607.1875 418.878906 606.726562 419.386719 606.242188 419.875 L 228.148438 799.132812 C 227.167969 800.117188 226.105469 800.992188 224.953125 801.765625 C 223.804688 802.535156 222.589844 803.1875 221.308594 803.71875 C 220.03125 804.25 218.710938 804.652344 217.355469 804.921875 C 215.996094 805.195312 214.625 805.328125 213.242188 805.328125 Z M 213.242188 805.328125 " fill-opacity="1" fill-rule="nonzero"/></g>
</svg>
