<svg xmlns="http://www.w3.org/2000/svg" xmlns:xlink="http://www.w3.org/1999/xlink" width="1080" zoomandpan="magnify" viewbox="0 0 810 809.999993" height="1080" preserveaspectratio="xMidYMid meet" version="1.0">
    <defs>
        <clipPath id="ca66fa1cb3"><path d="M 197 4 L 617.441406 4 L 617.441406 806 L 197 806 Z M 197 4 " clip-rule="nonzero"/></clipPath>
    </defs>
    <g clip-path="url(#ca66fa1cb3)"><path fill="#fff" d="M 596.753906 805.328125 C 597.789062 805.332031 598.820312 805.257812 599.84375 805.105469 C 600.871094 804.957031 601.878906 804.730469 602.871094 804.429688 C 603.863281 804.128906 604.828125 803.757812 605.765625 803.316406 C 606.707031 802.875 607.605469 802.367188 608.46875 801.789062 C 609.332031 801.214844 610.144531 800.578125 610.914062 799.882812 C 611.683594 799.1875 612.398438 798.4375 613.054688 797.636719 C 613.710938 796.835938 614.308594 795.988281 614.84375 795.101562 C 615.375 794.210938 615.839844 793.285156 616.238281 792.328125 C 616.632812 791.367188 616.957031 790.386719 617.210938 789.378906 C 617.460938 788.375 617.640625 787.355469 617.742188 786.320312 C 617.84375 785.289062 617.867188 784.253906 617.816406 783.21875 C 617.765625 782.183594 617.636719 781.15625 617.433594 780.136719 C 617.234375 779.121094 616.957031 778.125 616.605469 777.148438 C 616.257812 776.171875 615.835938 775.226562 615.347656 774.308594 C 614.859375 773.394531 614.304688 772.523438 613.683594 771.691406 C 613.066406 770.855469 612.390625 770.074219 611.65625 769.339844 L 248.382812 405 L 611.65625 40.617188 C 612.15625 40.128906 612.632812 39.621094 613.082031 39.089844 C 613.535156 38.554688 613.957031 38.003906 614.351562 37.425781 C 614.746094 36.851562 615.113281 36.261719 615.449219 35.648438 C 615.785156 35.039062 616.089844 34.410156 616.363281 33.769531 C 616.640625 33.128906 616.878906 32.476562 617.089844 31.808594 C 617.300781 31.144531 617.476562 30.46875 617.617188 29.789062 C 617.761719 29.105469 617.867188 28.414062 617.941406 27.722656 C 618.015625 27.027344 618.054688 26.332031 618.0625 25.636719 C 618.066406 24.9375 618.035156 24.242188 617.972656 23.546875 C 617.910156 22.851562 617.808594 22.160156 617.675781 21.476562 C 617.546875 20.792969 617.378906 20.113281 617.179688 19.445312 C 616.980469 18.777344 616.746094 18.121094 616.484375 17.476562 C 616.21875 16.832031 615.921875 16.199219 615.59375 15.585938 C 615.265625 14.96875 614.910156 14.371094 614.523438 13.789062 C 614.136719 13.210938 613.722656 12.648438 613.277344 12.109375 C 612.835938 11.570312 612.367188 11.054688 611.875 10.5625 C 611.382812 10.070312 610.863281 9.601562 610.324219 9.160156 C 609.785156 8.71875 609.222656 8.308594 608.644531 7.921875 C 608.0625 7.535156 607.464844 7.179688 606.847656 6.855469 C 606.230469 6.527344 605.597656 6.234375 604.953125 5.96875 C 604.308594 5.707031 603.652344 5.476562 602.984375 5.277344 C 602.316406 5.082031 601.636719 4.917969 600.953125 4.785156 C 600.269531 4.65625 599.578125 4.558594 598.882812 4.496094 C 598.191406 4.433594 597.496094 4.40625 596.796875 4.414062 C 596.101562 4.421875 595.40625 4.460938 594.710938 4.539062 C 594.019531 4.613281 593.332031 4.722656 592.648438 4.867188 C 591.96875 5.011719 591.296875 5.191406 590.628906 5.402344 C 589.964844 5.613281 589.3125 5.859375 588.675781 6.132812 C 588.035156 6.410156 587.410156 6.71875 586.800781 7.054688 C 586.191406 7.394531 585.597656 7.761719 585.023438 8.160156 C 584.453125 8.558594 583.898438 8.980469 583.371094 9.433594 C 582.839844 9.886719 582.332031 10.363281 581.847656 10.867188 L 203.753906 390.125 C 203.269531 390.613281 202.808594 391.121094 202.371094 391.65625 C 201.9375 392.1875 201.527344 392.742188 201.144531 393.316406 C 200.765625 393.886719 200.410156 394.476562 200.085938 395.085938 C 199.761719 395.695312 199.46875 396.316406 199.207031 396.953125 C 198.945312 397.589844 198.714844 398.238281 198.515625 398.894531 C 198.316406 399.554688 198.148438 400.222656 198.015625 400.898438 C 197.878906 401.574219 197.78125 402.253906 197.710938 402.9375 C 197.644531 403.625 197.609375 404.3125 197.609375 405 C 197.609375 405.6875 197.644531 406.375 197.710938 407.0625 C 197.78125 407.746094 197.878906 408.425781 198.015625 409.101562 C 198.148438 409.777344 198.316406 410.445312 198.515625 411.105469 C 198.714844 411.761719 198.945312 412.410156 199.207031 413.046875 C 199.46875 413.683594 199.761719 414.304688 200.085938 414.914062 C 200.410156 415.523438 200.765625 416.113281 201.144531 416.683594 C 201.527344 417.257812 201.9375 417.8125 202.371094 418.34375 C 202.808594 418.878906 203.269531 419.386719 203.753906 419.875 L 581.847656 799.132812 C 582.824219 800.117188 583.890625 800.992188 585.039062 801.765625 C 586.191406 802.535156 587.40625 803.1875 588.683594 803.71875 C 589.964844 804.25 591.28125 804.652344 592.640625 804.921875 C 593.996094 805.195312 595.367188 805.328125 596.753906 805.328125 Z M 596.753906 805.328125 " fill-opacity="1" fill-rule="nonzero"/></g>
</svg>
